<svg width="66" height="66" viewBox="0 0 66 66" fill="none" xmlns="http://www.w3.org/2000/svg">
<circle cx="33" cy="33" r="33" fill="#5044DE"/>
<path d="M27.1574 4.30508C18.2193 6.24849 10.8915 11.868 6.92421 19.8055C4.5905 24.5118 3.86705 27.6025 3.86705 33.0112C3.84371 37.3429 4.24044 39.6844 5.50065 43.0795C7.741 49.0736 12.1984 54.693 17.1225 57.6901L18.406 58.4628L19.3629 58.0881C19.993 57.8306 20.5997 57.7603 21.1598 57.854C22.6301 58.1115 22.8401 58.3223 22.8401 59.493C22.8401 60.4764 22.8868 60.5701 23.6802 60.8979C24.1236 61.0852 24.8937 61.2725 25.3605 61.2959L26.224 61.3427L26.574 59.8676C26.9707 58.1584 27.6475 57.3154 28.8377 57.1047C29.9112 56.894 30.0046 57.0813 30.1913 59.5632C30.2613 60.6637 30.378 61.7174 30.448 61.9047C30.588 62.3496 37.5191 62.1388 39.7595 61.6003C51.0079 58.9076 59.8293 49.495 61.8363 38.0453C62.2331 35.821 62.2331 30.2717 61.8363 27.9771C60.5061 20.2972 55.5587 12.7811 48.9776 8.49628C45.9204 6.50605 42.4666 5.07776 38.826 4.30508C36.0022 3.71972 29.8645 3.71972 27.1574 4.30508ZM36.0255 7.2319C42.1165 8.07481 46.6439 10.2524 50.9846 14.4436C55.0686 18.4006 57.729 23.5284 58.6391 29.3117C59.1059 32.262 59.1059 33.9244 58.6625 36.781C57.519 43.8521 54.0884 49.5653 48.2775 54.014C46.3638 55.4891 42.1865 57.5262 39.8061 58.1818C37.7758 58.7203 33.4351 59.2823 33.2017 59.0481C33.1084 58.9779 33.1784 56.9174 33.3418 54.5057C33.7618 47.8092 33.8085 48.4882 32.9217 48.4414C31.8949 48.3945 31.6848 48.137 31.4515 46.7789C31.1948 45.1633 31.7315 44.1331 33.0384 43.6648C33.8785 43.3838 34.0652 43.1965 34.1819 42.5877C34.4853 40.9956 34.2752 40.5975 32.875 40.1526C32.1749 39.9185 31.2648 39.5673 30.8447 39.3565C30.0512 38.9351 28.8144 37.6005 29.0011 37.3897C29.0711 37.3195 29.8412 37.6005 30.7047 37.9985C32.805 38.9585 34.5553 39.2161 37.3091 38.9585C39.6661 38.7244 41.4164 38.9117 44.4502 39.6844C47.3207 40.4102 48.1375 40.4804 49.9111 40.0356C52.3381 39.4502 52.8049 38.42 51.708 36.1254C51.1246 34.8844 49.1876 33.1751 42.9566 28.4688C40.9963 26.9937 39.4094 25.6591 39.4094 25.5186C39.4094 25.3547 39.6194 25.0503 39.8995 24.7927C40.1795 24.5586 40.6463 23.903 40.973 23.341C41.5331 22.4045 41.5564 22.1703 41.4164 20.5313C41.3464 19.5479 41.183 18.6582 41.0663 18.5411C40.4362 17.9089 37.4024 20.0396 36.4923 21.7489C35.9088 22.8259 35.3721 22.8259 34.6253 21.7255C34.1586 20.9996 34.0419 20.5547 34.0419 19.3606C34.0419 17.6279 33.6451 16.5509 32.7583 15.8484C31.9415 15.1928 31.2414 15.1928 30.448 15.825C29.6078 16.4806 29.6545 17.4406 30.5413 18.4708C32.455 20.625 32.3616 23.5518 30.4713 21.702C30.0512 21.2806 29.3511 20.344 28.9077 19.6181C27.0874 16.504 25.8039 15.4738 24.4737 16.0357C23.8436 16.2933 23.3068 17.1128 23.3068 17.8152C23.3068 18.6582 24.1236 19.5479 25.3372 20.0396C26.5974 20.5547 27.5075 21.4211 27.5075 22.1001C27.5075 22.3108 27.1341 22.7791 26.6674 23.1537C26.2006 23.5284 25.5939 24.3245 25.3138 24.9566L24.7771 26.0805L23.7969 25.0737C22.3033 23.5518 21.0898 23.0367 19.0361 23.0367C16.259 23.0367 15.3956 23.622 16.7258 24.6288C17.1458 24.9332 17.846 26.0571 18.5927 27.6025C19.8763 30.2249 20.6931 31.0678 22.35 31.3956C22.7701 31.4893 23.1668 31.6766 23.2135 31.8171C23.2835 31.981 22.6301 34.8376 21.7666 38.1624C19.7829 45.9828 19.8529 45.4911 20.5764 45.655C21.6032 45.9126 22.1166 46.9194 22.5834 49.5887C22.7467 50.4316 22.7001 50.7828 22.4667 51.0404C22.0933 51.3916 20.0863 51.7194 18.8728 51.5789C18.1027 51.5087 18.0327 51.5555 17.7526 52.4921C17.5659 53.054 17.2859 53.4989 17.1225 53.4989C16.8191 53.4989 14.0887 50.9233 12.9918 49.5887C9.07122 44.8824 6.69084 37.8112 7.06423 32.0746C7.55431 25.0737 9.84134 19.8055 14.5321 14.9118C18.4761 10.7909 23.9136 8.02798 29.6078 7.27872C32.7583 6.85726 33.2251 6.85726 36.0255 7.2319ZM29.0011 41.4639C29.2578 42.1195 29.1411 43.6648 28.8144 44.3204C28.1843 45.5146 27.1574 46.2872 25.9906 46.4043C24.9638 46.5448 24.8937 46.498 23.8903 45.4443C23.3068 44.8589 22.8401 44.1565 22.8401 43.9224C22.8401 43.2434 23.9836 42.0258 25.0571 41.5341C26.2706 40.9721 28.791 40.9253 29.0011 41.4639ZM30.3079 50.2209C30.7047 50.9935 31.0781 52.094 31.1481 52.656C31.2881 53.5457 31.2181 53.733 30.6347 54.295C29.7245 55.1613 29.0244 55.4891 27.5542 55.8169C25.5238 56.2384 24.7304 56.1681 24.4503 55.5125C24.1003 54.7399 24.3803 53.0072 25.0104 52.0472C25.4772 51.3682 28.9311 48.816 29.4211 48.816C29.5145 48.816 29.9112 49.4482 30.3079 50.2209Z" fill="#F8F6FF"/>
</svg>
